<?xml version="1.0"?>
<svg xmlns="http://www.w3.org/2000/svg" xmlns:xlink="http://www.w3.org/1999/xlink" viewBox="0 0 64 64" width="512" height="512"><defs><linearGradient id="linear-gradient" x1="2" y1="32" x2="63.294" y2="32" gradientUnits="userSpaceOnUse"><stop offset="0" stop-color="#fc4a1a"/><stop offset="1" stop-color="#f7b733"/></linearGradient><linearGradient id="linear-gradient-2" y1="40" x2="63.294" y2="40" xlink:href="#linear-gradient"/></defs><g id="Gradient_outline" data-name="Gradient outline"><path d="M61.707,18.293l-8-8A1,1,0,0,0,53,10H46.123L14.242,2.03a1,1,0,0,0-1,.311L6.546,10H3a1,1,0,0,0-1,1v8a1,1,0,0,0,1,1H6v4H4a1,1,0,0,0-1,1V39a1,1,0,0,0,1,1h6a1,1,0,0,0,1-1V25a1,1,0,0,0-1-1H8V20h5V61a1,1,0,0,0,1,1h8a1,1,0,0,0,1-1V20H45v2H39a1,1,0,0,0-1,1v4a1,1,0,0,0,1,1h1v7H39a1,1,0,0,0-1,1v8a1,1,0,0,0,.726.961L45,46.754V51a1,1,0,0,0,1,1h2a2,2,0,0,1,0,4H45v2h3a4,4,0,0,0,0-8H47V46.754l6.274-1.793A1,1,0,0,0,54,44V36a1,1,0,0,0-1-1H52V28h1a1,1,0,0,0,1-1V23a1,1,0,0,0-1-1H47V20H61a1,1,0,0,0,.707-1.707ZM9,38H5V26H9Zm43,5.246L46,44.96l-6-1.714V37H52ZM50,35H42V28h8Zm2-9H40V24H52ZM15,13.414,19.586,18H15Zm0,16L19.586,34H15Zm0,8L19.586,42H15ZM16.414,36H21v4.586ZM21,32.586,16.414,28H21ZM15,26V21.414L19.586,26Zm0,19.414L19.586,50H15ZM16.414,44H21v4.586ZM21,24.586,16.414,20H21ZM16.414,12H21v4.586ZM15,10V5.414L19.586,10Zm30,2v4.586L40.414,12ZM22.414,10,17.259,4.845,37.877,10ZM37,12v4.586L32.414,12Zm-8,0v4.586L24.414,12ZM13,5.662V10H9.2ZM4,18V12H6v6Zm4-6h5v6H8Zm7,48V52h6v8Zm8-42V13.414L27.586,18Zm8,0V13.414L35.586,18Zm8,0V13.414L43.586,18Zm8,0V13.414L51.586,18Zm7.414,0-6-6h4.172l6,6Z" style="fill:url(#linear-gradient)"/><rect x="42" y="39" width="2" height="2" style="fill:url(#linear-gradient-2)"/><rect x="48" y="39" width="2" height="2" style="fill:url(#linear-gradient-2)"/></g></svg>
