<?xml version="1.0"?>
<svg xmlns="http://www.w3.org/2000/svg" xmlns:xlink="http://www.w3.org/1999/xlink" viewBox="0 0 64 64" width="512" height="512"><defs><linearGradient id="linear-gradient" x1="1" y1="32.022" x2="61.075" y2="32.022" gradientUnits="userSpaceOnUse"><stop offset="0" stop-color="#fc4a1a"/><stop offset="1" stop-color="#f7b733"/></linearGradient><linearGradient id="linear-gradient-2" y1="32" x2="61.075" y2="32" xlink:href="#linear-gradient"/><linearGradient id="linear-gradient-3" y1="32.011" x2="61.075" y2="32.011" xlink:href="#linear-gradient"/><linearGradient id="linear-gradient-4" y1="32" x2="61.075" y2="32" xlink:href="#linear-gradient"/><linearGradient id="linear-gradient-5" y1="43" x2="61.075" y2="43" xlink:href="#linear-gradient"/><linearGradient id="linear-gradient-6" y1="57" x2="61.075" y2="57" xlink:href="#linear-gradient"/></defs><g id="Gradient_outline" data-name="Gradient outline"><path d="M3,62h8a1,1,0,0,0,1-1V39a1,1,0,0,0-1-1H10V34h1a1,1,0,0,0,1-1V29a1,1,0,0,0-1-1H10V7A1,1,0,0,0,9.9,6.553l-2-4a1.042,1.042,0,0,0-1.79,0l-2,4A1,1,0,0,0,4,7V28H3a1,1,0,0,0-1,1v4a1,1,0,0,0,1,1H4v4H3a1,1,0,0,0-1,1V61A1,1,0,0,0,3,62ZM6,7.236l1-2,1,2V28H6ZM4,30h6v2H4Zm4,4v4H6V34ZM4,40h6V60H4Z" style="fill:url(#linear-gradient)"/><path d="M19,38a1,1,0,0,0-1,1V61a1,1,0,0,0,1,1h8a1,1,0,0,0,1-1V39a1,1,0,0,0-1-1H26V34h1a1,1,0,0,0,1-1V29a1,1,0,0,0-1-1H26V7a1,1,0,0,0-1-1H24V3a1,1,0,0,0-2,0V6H21a1,1,0,0,0-1,1V28H19a1,1,0,0,0-1,1v4a1,1,0,0,0,1,1h1v4ZM22,8h2V28H22ZM20,30h6v2H20Zm4,4v4H22V34Zm2,6V60H20V40Z" style="fill:url(#linear-gradient-2)"/><path d="M37,38a1,1,0,0,0-1,1V61a1,1,0,0,0,1,1h8a1,1,0,0,0,1-1V39a1,1,0,0,0-1-1H44V34h1a1,1,0,0,0,1-1V29a1,1,0,0,0-1-1H44V11.123l.97-3.881A1,1,0,0,0,44.8,6.4l-3-4a1.036,1.036,0,0,0-1.6,0l-3,4a1,1,0,0,0-.17.842L38,11.123V28H37a1,1,0,0,0-1,1v4a1,1,0,0,0,1,1h1v4ZM41,4.667l1.914,2.552-.884,3.539A.984.984,0,0,0,42,11V28H40V11a.984.984,0,0,0-.03-.242l-.884-3.539ZM38,30h6v2H38Zm4,4v4H40V34Zm2,6V60H38V40Z" style="fill:url(#linear-gradient-3)"/><path d="M61,28H58V12h1a1,1,0,0,0,.986-.836l1-6a1,1,0,0,0-.431-1l-3-2a1,1,0,0,0-1.11,0l-3,2a1,1,0,0,0-.431,1l1,6A1,1,0,0,0,55,12h1V28H53a1,1,0,0,0-1,1v4a1,1,0,0,0,1,1h1v4H53a1,1,0,0,0-1,1V61a1,1,0,0,0,1,1h8a1,1,0,0,0,1-1V39a1,1,0,0,0-1-1H60V34h1a1,1,0,0,0,1-1V29A1,1,0,0,0,61,28ZM55.847,10l-.754-4.526L57,4.2l1.907,1.272L58.153,10ZM60,60H54V40h6ZM56,38V34h2v4Zm4-6H54V30h6Z" style="fill:url(#linear-gradient-4)"/><rect x="6" y="42" width="2" height="2" style="fill:url(#linear-gradient-5)"/><rect x="22" y="56" width="2" height="2" style="fill:url(#linear-gradient-6)"/><rect x="40" y="42" width="2" height="2" style="fill:url(#linear-gradient-5)"/><rect x="56" y="56" width="2" height="2" style="fill:url(#linear-gradient-6)"/></g></svg>
