<?xml version="1.0"?>
<svg xmlns="http://www.w3.org/2000/svg" xmlns:xlink="http://www.w3.org/1999/xlink" viewBox="0 0 64 64" width="512" height="512"><defs><linearGradient id="linear-gradient" x1="1" y1="27" x2="61.075" y2="27" gradientUnits="userSpaceOnUse"><stop offset="0" stop-color="#fc4a1a"/><stop offset="1" stop-color="#f7b733"/></linearGradient><linearGradient id="linear-gradient-2" y1="41" x2="61.075" y2="41" xlink:href="#linear-gradient"/><linearGradient id="linear-gradient-4" y1="51.008" x2="61.075" y2="51.008" xlink:href="#linear-gradient"/></defs><g id="Gradient_outline" data-name="Gradient outline"><path d="M61,8H51a1.007,1.007,0,0,0-.274.038L36.86,12H36V11a3,3,0,0,0-3-3H31a3,3,0,0,0-3,3v1H27a1,1,0,0,0-1,1v4a1,1,0,0,0,1,1h1v4H21v2H17v3H2V41H17v3h4v2H43V44h4V41H62V27H47V24H43V22H36V18h1a1.007,1.007,0,0,0,.274-.038L51.14,14H61a1,1,0,0,0,1-1V9A1,1,0,0,0,61,8ZM17,39H4V29H17Zm4,3H19V26h2ZM47,29H60V39H47Zm-4-3h2V42H43ZM30,11a1,1,0,0,1,1-1h2a1,1,0,0,1,1,1v1H30ZM41,44H23V38H41Zm0-8H23V32H41Zm0-12v6H23V24ZM30,22V18h4v4ZM60,12H51a1.007,1.007,0,0,0-.274.038L36.86,16H28V14h9a1.007,1.007,0,0,0,.274-.038L51.14,10H60Z" style="fill:url(#linear-gradient)"/><rect x="37" y="40" width="2" height="2" style="fill:url(#linear-gradient-2)"/><rect x="33" y="40" width="2" height="2" style="fill:url(#linear-gradient-2)"/><path d="M17.256,46.332C16.712,46.938,14,50.059,14,52a4,4,0,0,0,8,0c0-1.941-2.712-5.062-3.256-5.668A1.033,1.033,0,0,0,17.256,46.332ZM18,54a2,2,0,0,1-2-2c0-.638.939-2.126,2-3.451,1.062,1.332,2,2.832,2,3.451A2,2,0,0,1,18,54Z" style="fill:url(#linear-gradient-4)"/></g></svg>
